<svg width="148" height="40" viewBox="0 0 148 40" fill="none" xmlns="http://www.w3.org/2000/svg">
<g clip-path="url(#clip0_750_2557)">
<path d="M93.1368 20.3773L98.5781 20.4309L98.5579 22.5416C99.5741 21.2685 101.018 20.116 103.195 20.1361C105.258 20.1562 106.822 21.0842 107.637 22.689C108.999 21.1646 110.584 20.2098 112.846 20.2333C116.14 20.2668 118.122 22.3406 118.085 25.9321L117.981 36.0534L112.539 35.9997L112.624 27.6173C112.64 25.9355 111.819 25.0443 110.531 25.0309C109.242 25.0175 108.289 25.8919 108.273 27.5738L108.185 35.9562L102.744 35.9026L102.831 27.5201C102.848 25.8383 102.027 24.9471 100.738 24.9337C99.4496 24.9203 98.5242 25.7947 98.5074 27.4766L98.4233 35.859L92.982 35.8054L93.1368 20.3773Z" fill="white"/>
<path d="M118.627 31.641V31.5841C118.66 28.3912 121.11 26.7596 124.748 26.7998C126.181 26.8132 127.581 27.1148 128.466 27.4364L128.469 27.1784C128.486 25.5803 127.494 24.659 125.404 24.6389C123.772 24.6221 122.51 24.9237 121.127 25.4497L120.05 21.6169C121.803 20.9234 123.671 20.4544 126.336 20.4812C129.112 20.5113 130.997 21.1847 132.215 22.4243C133.376 23.5769 133.847 25.1783 133.827 27.3459L133.736 36.2142L128.352 36.1606L128.369 34.5625C127.298 35.7217 125.828 36.4755 123.795 36.4554C120.838 36.4252 118.593 34.7199 118.627 31.641ZM128.49 30.5723L128.496 29.8587C127.955 29.6241 127.184 29.4466 126.383 29.4365C124.808 29.4198 123.883 30.1803 123.873 31.3227V31.3797C123.863 32.435 124.657 33.0716 125.774 33.0816C127.346 33.0984 128.473 32.1101 128.49 30.5723Z" fill="white"/>
<path d="M135.401 15.4155L140.843 15.4691L140.631 36.2812L135.189 36.2276L135.401 15.4155Z" fill="white"/>
<path d="M142.559 15.4859L148 15.5395L147.788 36.3549L142.347 36.3013L142.559 15.4859Z" fill="white"/>
<path d="M87.9917 6.46688C86.8476 6.76171 86.4438 6.87227 85.1988 7.43177C84.122 7.91756 83.5364 9.21413 84.0109 10.236C84.4854 11.2578 85.6059 11.6933 86.75 11.2176C87.4701 10.9194 87.5274 10.8558 88.1936 10.6447C88.409 9.93779 88.6546 9.27108 88.9205 8.65128C88.557 7.89746 88.2508 7.1604 87.9917 6.46688Z" fill="white"/>
<path d="M99.8198 7.36476C99.6582 7.25755 98.9718 6.6076 95.5159 6.0682C94.8631 6.70476 94.1733 7.52893 93.5406 8.58427C93.867 9.09687 94.2271 9.59271 94.6242 10.0517C96.7542 10.3633 96.6499 10.4772 97.6931 10.7285C98.7867 10.9931 99.8097 11.107 100.415 10.1656C101.024 9.22753 100.762 7.97787 99.8198 7.36476Z" fill="white"/>
<path d="M88.197 10.6481C87.911 11.5727 87.9076 11.5158 87.7326 12.5979C87.5543 13.7069 88.2643 14.6617 89.3815 14.8393C90.4953 15.0168 91.3769 14.4908 91.7976 13.0033C91.0169 12.1423 90.3439 11.2009 89.7752 10.2393C89.2603 10.3432 88.7354 10.4772 88.197 10.6481Z" fill="white"/>
<path d="M95.5159 6.0682C96.1014 5.49865 97.2186 4.69123 97.9152 3.8034C98.4704 3.09314 98.8136 2.18186 98.0127 1.32083C97.1513 0.392797 96.0779 0.4263 95.2332 0.861838C94.3718 1.30408 93.5541 2.1785 92.8945 2.85862C92.5042 3.2573 92.0668 3.74309 91.5755 4.32269C91.7336 4.80179 91.9254 5.32108 92.1475 5.86048C93.369 5.82698 94.4997 5.91409 95.5159 6.0682Z" fill="white"/>
<path d="M90.327 6.01124C90.7308 5.39144 91.1515 4.83194 91.5755 4.3294C91.0774 2.82511 90.8722 1.71281 90.8654 1.68601C90.6703 0.577063 89.6103 -0.163353 88.4965 0.0309647C87.386 0.228632 86.639 1.27728 86.8342 2.38622C86.8611 2.54704 87.174 4.26909 87.9917 6.46688C88.796 6.25917 89.5766 6.1084 90.327 6.01124Z" fill="white"/>
<path d="M91.7942 13.0033C92.5883 13.8777 93.5204 14.6349 94.5468 15.2916C95.5159 15.9114 96.7744 15.5629 97.3532 14.5981C97.9387 13.6365 97.6931 12.5343 96.6566 11.8039C95.9231 11.288 95.2164 10.7385 94.6242 10.0551C94.0689 9.98135 93.47 9.93444 92.8306 9.92774C92.4201 10.8189 92.0668 11.8408 91.7942 13.0033Z" fill="white"/>
<path d="M8.54713 29.9458C3.19003 29.9458 0 25.979 0 20.8866C0 15.7941 3.22032 11.7939 8.54713 11.7939C13.9076 11.7939 17.0943 15.7941 17.0943 20.8866C17.0943 25.979 13.9076 29.9458 8.54713 29.9458ZM8.54713 15.5964C5.94934 15.5964 4.70092 18.1427 4.70092 20.8866C4.70092 23.597 5.94934 26.1432 8.54713 26.1432C11.1449 26.1432 12.427 23.597 12.427 20.8866C12.427 18.1427 11.1449 15.5964 8.54713 15.5964ZM28.3738 23.7645H24.2315V37.2193H19.4632V10.5375H24.2315V19.925H28.3738V23.7645Z" fill="white"/>
<path d="M28.3704 28.8871C33.9261 25.252 37.3449 21.3489 38.102 16.357C38.1996 15.697 38.0684 15.3988 37.4459 15.3988H28.1753V11.6632H40.5047C42.379 11.6632 43.2673 12.819 43.0688 15.0336C42.5439 21.2149 38.6976 27.9289 30.837 32.5556L28.3704 28.8871ZM55.3309 23.7645H51.1886V37.2193H46.4204V10.5375H51.1886V19.925H55.3309V23.7645Z" fill="white"/>
<path d="M62.3638 24.9538H59.0762C56.1183 24.9538 55.4924 24.0928 55.4924 21.7476V10.6715H60.0958V14.2764H65.8836V10.6715H70.5206V22.6723C68.6766 23.7946 64.864 24.9538 62.3638 24.9538ZM65.8802 20.4577V17.945H60.0924V20.4242C60.0924 21.0541 60.3885 21.2852 61.0144 21.2852H62.7575C63.9083 21.2819 64.9952 20.9536 65.8802 20.4577ZM79.0341 10.2092V16.0923H83.1091V19.7642H79.0341V24.0626C79.0341 26.3777 78.0481 27.7647 76.5339 28.6257C77.4862 29.7816 78.0784 31.2356 78.0784 32.9242C78.0784 37.2226 74.2658 40 69.7601 40C65.224 40 61.4081 37.2561 61.4081 32.9242C61.4081 28.5587 65.2207 25.7847 69.7601 25.7847C71.1095 25.7847 72.3915 26.0159 73.5087 26.4782C74.0673 25.8484 74.2658 24.9572 74.2658 24.2302V10.2092H79.0341ZM69.7601 29.3829C67.657 29.3829 66.1763 30.8369 66.1763 32.9208C66.1763 35.0047 67.657 36.3582 69.7601 36.3582C71.8632 36.3582 73.2462 35.0014 73.2462 32.9208C73.2462 30.8403 71.8666 29.3829 69.7601 29.3829Z" fill="white"/>
</g>
<defs>
<clipPath id="clip0_750_2557">
<rect width="148" height="40" fill="white"/>
</clipPath>
</defs>
</svg>
