<svg width="24" height="24" viewBox="0 0 24 24" fill="none" xmlns="http://www.w3.org/2000/svg">
<path d="M18.7689 6.26146C18.3788 5.86944 17.9154 5.55844 17.4052 5.34624C16.8951 5.13404 16.3482 5.02482 15.796 5.02482C15.2437 5.02482 14.6969 5.13404 14.1867 5.34624C13.6766 5.55844 13.2132 5.86944 12.823 6.26146L12.0137 7.07438L11.2031 6.26146C10.814 5.86421 10.3502 5.54821 9.83864 5.33171C9.32706 5.1152 8.77779 5.00247 8.22253 5.00004C7.66728 4.99761 7.11704 5.10551 6.6036 5.31753C6.09015 5.52954 5.62366 5.84146 5.23107 6.23528C4.83848 6.62911 4.52757 7.09702 4.31628 7.61202C4.10499 8.12702 3.99751 8.67889 4.00004 9.23578C4.00258 9.79266 4.11508 10.3435 4.33106 10.8566C4.54703 11.3696 4.8622 11.8347 5.25836 12.2249L6.06772 13.0366L12.0137 19L17.9584 13.0366L18.7689 12.2249C19.5572 11.4339 20 10.3614 20 9.24316C20 8.12488 19.5572 7.05238 18.7689 6.26146Z" stroke="#3A3A3A" stroke-width="1.002" stroke-linecap="square"></path>
</svg>